.
..............................Site Info...........................

 -   http://www.scenetime.com  *_*    

Scenetime .Always on time . friendly online private torrent community ..

     We care to share . Join us on  http://www.scenetime.com 

    Be the first to get new release at  http://www.scenetime.com

        Seed back for speed


...................................NFO:.................................................[IMG]http://i.imgur.com/qD9lu.gif[/IMG]

 
TITLE: 

TED 2012 TS XViD - INSPiRAL

IMDB: 
 
http://www.imdb.com/title/tt1637725/


SOURCES:

VIDEO -  kINGDOM 720p files :)
AUDIO -  CM8 LiNE
SUBS  - None Add

STATS:
Video
ID                               : 0
Format                           : MPEG-4 Visual
Format profile                   : Advanced Simple@L5
Format settings, BVOP            : 2
Format settings, QPel            : No
Format settings, GMC             : No warppoints
Format settings, Matrix          : Default (MPEG)
Muxing mode                      : Packed bitstream
Codec ID                         : XVID
Codec ID/Hint                    : XviD
Duration                         : 1h 39mn
Bit rate                         : 1 844 Kbps
Width                            : 720 pixels
Height                           : 368 pixels
Display aspect ratio             : 1.957
Frame rate                       : 29.970 fps
Color space                      : YUV
Chroma subsampling               : 4:2:0
Bit depth                        : 8 bits
Scan type                        : Progressive
Compression mode                 : Lossy
Bits/(Pixel*Frame)               : 0.232
Stream size                      : 1.29 GiB (93%)
Writing library                  : XviD 64

Audio
ID                               : 1
Format                           : MPEG Audio
Format version                   : Version 1
Format profile                   : Layer 3
Mode                             : Joint stereo
Mode extension                   : MS Stereo
Codec ID                         : 55
Codec ID/Hint                    : MP3
Duration                         : 1h 39mn
Bit rate mode                    : Constant
Bit rate                         : 128 Kbps
Channel(s)                       : 2 channels
Sampling rate                    : 44.1 KHz
Compression mode                 : Lossy
Stream size                      : 91.4 MiB (6%)
Alignment                        : Split accross interleaves
Interleave, duration             : 33 ms (1.00 video frame)
Interleave, preload duration     : 500 ms



NOTES:

Ok heres our take on TED....to go with the other 100 copies :P
Wasn't going too bother but when handed the 720p file,it would be rude not to!!
Video we cut into 3 and rotated and pulled the sides differently on each part ...needed a res that
look good for all of it so the AR might change slightly during these 3 parts.
Video we cleaned up changing all the normal stuff.
Audio we had too sync too the video ...more or less went over but needed a few -200 - +200 shifts here 
and there.
After we cleaned it and remuxed and hey presto .....THE FUNNIEST film this year !!

SCREENS:

[img]http://i.imgrz.com/L9JBV.png[/img] 
[img]http://i.imgrz.com/BrdDA.png[/img] 
[img]http://i.imgrz.com/1NVxL.png[/img] 
[img]http://i.imgrz.com/suR3c.png[/img] 
[img]http://i.imgrz.com/Ftrnl.png[/img] 

GREETZ: 

Past,Present and Future

[IMG]http://i.imgur.com/qD9lu.gif[/IMG]